# xmcd
#
# Track frame offsets: 
#        150
#        16264
#        43070
#        65865
#        83541
#        116279
#        132404
#        152390
#        175783
#        190678
#        216795
#        233409
#        251206
#
# Disc length: 3666 seconds
#
# Revision: 1
# Processed by: cddbd v1.5.2PL0 Copyright (c) Steve Scherf et al.
# Submitted via: ExactAudioCopy v1.0b1
#
DISCID=a20e500d
DTITLE=Catrine Legardh - Gorgeous Creature
DYEAR=2008
DGENRE=Jazz
TTITLE0=Fine Together
TTITLE1=My Ideal
TTITLE2=Once Upon a Summertime
TTITLE3=Now's The Time - Oh Henry
TTITLE4=You've Changed - You've Altered Your Attitude
TTITLE5=I'm Old Fashioned
TTITLE6=I Hope It's Spring for You
TTITLE7=If I Should Lose You
TTITLE8=Confirmation
TTITLE9=I'll be Seeing You
TTITLE10=For All we Know
TTITLE11=Gorgeous Creature - Beautiful Love
TTITLE12=Beeing Me
EXTD=YEAR: 2008
EXTT0=
EXTT1=
EXTT2=
EXTT3=
EXTT4=
EXTT5=
EXTT6=
EXTT7=
EXTT8=
EXTT9=
EXTT10=
EXTT11=
EXTT12=
PLAYORDER=
